<svg width="500" height="500" viewBox="0 0 500 500" fill="none" xmlns="http://www.w3.org/2000/svg">
<rect width="500" height="500" fill="#F36A8D"/>
<path d="M162.023 183.76V182.8H179.111V237.328C179.111 242.384 178.087 245.776 176.039 247.504C173.991 249.168 170.887 250 166.727 250C162.631 250 158.983 249.392 155.783 248.176L156.071 247.408C159.143 248.624 162.311 249.232 165.575 249.232C167.751 249.232 169.191 248.304 169.895 246.448C170.663 244.592 171.047 241.584 171.047 237.424V183.76H162.023ZM255.666 291.04C255.666 287.136 255.154 284.384 254.13 282.784C253.106 281.184 251.154 280.384 248.274 280.384C244.434 280.384 241.01 281.984 238.002 285.184C235.058 288.384 233.586 291.264 233.586 293.824V328H226.866V291.04C226.866 287.136 226.354 284.384 225.33 282.784C224.306 281.184 222.13 280.384 218.802 280.384C215.474 280.384 212.306 281.92 209.298 284.992C206.354 288.064 204.754 290.912 204.498 293.536V328H197.778V280H204.498V290.848C205.522 288.096 207.41 285.536 210.162 283.168C212.914 280.8 215.986 279.616 219.378 279.616C222.77 279.616 225.458 279.936 227.442 280.576C229.49 281.152 230.93 282.08 231.762 283.36C232.594 284.64 233.106 285.76 233.298 286.72C233.49 287.68 233.586 289.024 233.586 290.752C234.61 288 236.466 285.472 239.154 283.168C241.842 280.8 244.722 279.616 247.794 279.616C250.866 279.616 253.33 279.872 255.186 280.384C257.042 280.896 258.418 281.472 259.314 282.112C260.274 282.752 260.978 283.68 261.426 284.896C261.938 286.112 262.226 287.104 262.29 287.872C262.354 288.64 262.386 289.728 262.386 291.136V321.184C262.386 323.04 262.738 324.48 263.442 325.504C264.21 326.464 264.978 326.976 265.746 327.04L266.802 327.232H269.778V328H263.922C261.298 328 259.282 327.424 257.874 326.272C256.53 325.12 255.826 323.968 255.762 322.816L255.666 321.184V291.04Z" fill="#91A0E2"/>
<path d="M212.42 250.384C205.7 250.384 200.228 248.464 196.004 244.624C191.78 240.784 189.668 234.864 189.668 226.864C189.668 218.864 191.844 212.656 196.196 208.24C200.612 203.824 206.18 201.616 212.9 201.616C219.684 201.616 225.188 203.536 229.412 207.376C233.636 211.216 235.748 217.136 235.748 225.136C235.748 233.136 233.54 239.344 229.124 243.76C224.772 248.176 219.204 250.384 212.42 250.384ZM213.092 202.384C208.228 202.384 204.196 204.56 200.996 208.912C197.796 213.2 196.196 219.216 196.196 226.96C196.196 234.64 197.668 240.336 200.612 244.048C203.556 247.76 207.46 249.616 212.324 249.616C217.188 249.616 221.22 247.472 224.42 243.184C227.62 238.832 229.22 232.816 229.22 225.136C229.22 217.392 227.748 211.664 224.804 207.952C221.86 204.24 217.956 202.384 213.092 202.384ZM315.17 250.384C308.45 250.384 302.978 248.464 298.754 244.624C294.53 240.784 292.418 234.864 292.418 226.864C292.418 218.864 294.594 212.656 298.946 208.24C303.362 203.824 308.93 201.616 315.65 201.616C322.434 201.616 327.938 203.536 332.162 207.376C336.386 211.216 338.498 217.136 338.498 225.136C338.498 233.136 336.29 239.344 331.874 243.76C327.522 248.176 321.954 250.384 315.17 250.384ZM315.842 202.384C310.978 202.384 306.946 204.56 303.746 208.912C300.546 213.2 298.946 219.216 298.946 226.96C298.946 234.64 300.418 240.336 303.362 244.048C306.306 247.76 310.21 249.616 315.074 249.616C319.938 249.616 323.97 247.472 327.17 243.184C330.37 238.832 331.97 232.816 331.97 225.136C331.97 217.392 330.498 211.664 327.554 207.952C324.61 204.24 320.706 202.384 315.842 202.384ZM156.399 304.576C156.399 312.512 157.775 318.336 160.527 322.048C163.343 325.76 167.023 327.616 171.567 327.616C177.967 327.616 183.663 326.656 188.655 324.736L188.943 325.408C183.823 327.392 178.031 328.384 171.567 328.384C165.167 328.384 159.951 326.464 155.919 322.624C151.887 318.784 149.871 312.864 149.871 304.864C149.871 296.864 151.983 290.656 156.207 286.24C160.431 281.824 165.807 279.616 172.335 279.616C177.583 279.616 181.999 281.184 185.583 284.32C189.167 287.456 190.959 292.096 190.959 298.24C190.959 298.56 190.959 298.88 190.959 299.2H156.687C156.495 300.928 156.399 302.72 156.399 304.576ZM184.431 298.432C184.367 292.288 183.183 287.744 180.879 284.8C178.575 281.856 175.599 280.384 171.951 280.384C168.303 280.384 165.039 281.984 162.159 285.184C159.343 288.384 157.551 292.8 156.783 298.432H184.431ZM303.167 260.032L310.079 259.84L299.999 273.568H298.751L303.167 260.032ZM297.311 328.384C290.591 328.384 285.119 326.464 280.895 322.624C276.671 318.784 274.559 312.864 274.559 304.864C274.559 296.864 276.735 290.656 281.087 286.24C285.503 281.824 291.071 279.616 297.791 279.616C304.575 279.616 310.079 281.536 314.303 285.376C318.527 289.216 320.639 295.136 320.639 303.136C320.639 311.136 318.431 317.344 314.015 321.76C309.663 326.176 304.095 328.384 297.311 328.384ZM297.983 280.384C293.119 280.384 289.087 282.56 285.887 286.912C282.687 291.2 281.087 297.216 281.087 304.96C281.087 312.64 282.559 318.336 285.503 322.048C288.447 325.76 292.351 327.616 297.215 327.616C302.079 327.616 306.111 325.472 309.311 321.184C312.511 316.832 314.111 310.816 314.111 303.136C314.111 295.392 312.639 289.664 309.695 285.952C306.751 282.24 302.847 280.384 297.983 280.384ZM344.739 284.128V282.112C341.859 283.264 339.235 285.6 336.867 289.12C334.499 292.576 333.251 295.84 333.123 298.912V328H326.403V280H333.123V295.264C334.147 291.552 336.099 288.064 338.979 284.8C341.859 281.472 345.123 279.744 348.771 279.616H349.155C350.435 279.616 351.491 280.064 352.323 280.96C353.219 281.792 353.667 282.848 353.667 284.128C353.667 285.408 353.219 286.464 352.323 287.296C351.491 288.128 350.435 288.544 349.155 288.544C347.875 288.544 346.819 288.128 345.987 287.296C345.155 286.464 344.739 285.408 344.739 284.128ZM423.894 328C419.542 328 416.566 327.168 414.966 325.504C413.494 324.096 412.758 322.88 412.758 321.856V319.84C409.622 325.536 404.598 328.384 397.686 328.384C389.622 328.384 385.046 324.736 383.958 317.44C383.83 316.672 383.766 315.904 383.766 315.136C383.766 314.304 383.894 313.408 384.15 312.448C384.406 311.488 385.142 310.432 386.358 309.28C388.79 306.976 394.134 305.568 402.39 305.056C404.438 304.864 406.326 304.768 408.054 304.768C409.782 304.768 411.35 304.832 412.758 304.96V289.024C412.63 288.96 412.63 288.672 412.758 288.16C412.886 287.584 412.758 286.88 412.374 286.048C412.054 285.152 411.606 284.288 411.03 283.456C410.454 282.624 409.43 281.92 407.958 281.344C406.486 280.704 404.566 280.384 402.198 280.384C399.83 280.384 397.046 280.832 393.846 281.728C390.71 282.56 388.406 283.392 386.934 284.224L386.55 283.552C392.246 280.928 398.038 279.616 403.926 279.616C410.518 279.616 414.87 280.8 416.982 283.168C418.646 285.024 419.478 286.976 419.478 289.024V321.184C419.478 323.04 419.83 324.48 420.534 325.504C421.302 326.464 422.07 326.976 422.838 327.04L423.894 327.232H426.87V328H423.894ZM399.222 327.616C402.614 327.616 405.654 326.464 408.342 324.16C411.094 321.792 412.566 319.52 412.758 317.344V305.728C411.03 305.6 409.27 305.536 407.478 305.536C405.75 305.536 404.022 305.632 402.294 305.824C397.43 306.4 394.262 307.488 392.79 309.088C391.318 310.688 390.582 312.896 390.582 315.712C390.582 316.224 390.614 316.8 390.678 317.44C391.254 324.224 394.102 327.616 399.222 327.616Z" fill="white"/>
<path d="M242.907 227.728C242.907 219.408 244.923 212.976 248.955 208.432C252.987 203.888 259.035 201.616 267.099 201.616C273.051 201.616 279.099 202.672 285.243 204.784V251.152C285.179 266.384 278.523 274 265.275 274C257.979 274 251.739 271.632 246.555 266.896L247.227 266.32C252.731 270.928 258.747 273.232 265.275 273.232C274.107 273.232 278.523 265.872 278.523 251.152V241.648C277.307 243.888 275.291 245.872 272.475 247.6C269.659 249.328 266.331 250.192 262.491 250.192C249.435 249.872 242.907 242.384 242.907 227.728ZM262.587 249.424C266.875 249.424 270.555 248.272 273.627 245.968C276.699 243.664 278.331 241.392 278.523 239.152V205.264C273.915 203.344 270.011 202.384 266.811 202.384C261.115 202.384 256.827 204.624 253.947 209.104C251.067 213.52 249.627 219.728 249.627 227.728C249.627 242.192 253.947 249.424 262.587 249.424ZM370.695 328C368.071 328 366.055 327.424 364.647 326.272C363.303 325.12 362.599 323.968 362.535 322.816L362.439 321.184V280H369.159V321.184C369.159 323.04 369.511 324.48 370.215 325.504C370.983 326.464 371.719 326.976 372.423 327.04L373.575 327.232H376.551V328H370.695ZM363.015 269.248C362.247 268.48 361.863 267.52 361.863 266.368C361.863 265.216 362.247 264.256 363.015 263.488C363.783 262.656 364.743 262.24 365.895 262.24C367.047 262.24 368.007 262.656 368.775 263.488C369.607 264.256 370.023 265.216 370.023 266.368C370.023 267.52 369.607 268.48 368.775 269.248C368.007 270.016 367.047 270.4 365.895 270.4C364.743 270.4 363.783 270.016 363.015 269.248Z" fill="#FDC93A"/>
<path d="M77.3005 328H76.0525L84.4045 260.8H87.5725L107.733 322.912L127.797 260.8H130.965L139.317 328H131.349L124.725 274.24L107.349 328H101.301L83.7325 274.912L77.3005 328Z" fill="#D2E23D"/>
</svg>
